<?xml version="1.0" encoding="UTF-8" standalone="no"?>
<!-- Created with Inkscape (http://www.inkscape.org/) -->

<svg
   xmlns:dc="http://purl.org/dc/elements/1.1/"
   xmlns:cc="http://creativecommons.org/ns#"
   xmlns:rdf="http://www.w3.org/1999/02/22-rdf-syntax-ns#"
   xmlns:svg="http://www.w3.org/2000/svg"
   xmlns="http://www.w3.org/2000/svg"
   xmlns:sodipodi="http://sodipodi.sourceforge.net/DTD/sodipodi-0.dtd"
   xmlns:inkscape="http://www.inkscape.org/namespaces/inkscape"
   version="1.1"
   width="80"
   height="80"
   viewBox="0 0 80 80"
   id="svg3706"
   xml:space="preserve"
   inkscape:version="0.48.4 r9939"
   sodipodi:docname="qml204880.svg"><sodipodi:namedview
     pagecolor="#ffffff"
     bordercolor="#666666"
     borderopacity="1"
     objecttolerance="10"
     gridtolerance="10"
     guidetolerance="10"
     inkscape:pageopacity="0"
     inkscape:pageshadow="2"
     inkscape:window-width="1366"
     inkscape:window-height="712"
     id="namedview3288"
     showgrid="false"
     inkscape:zoom="6.525"
     inkscape:cx="40.306513"
     inkscape:cy="39.386973"
     inkscape:window-x="0"
     inkscape:window-y="27"
     inkscape:window-maximized="1"
     inkscape:current-layer="svg3706"
     inkscape:snap-page="true"
     inkscape:snap-global="true"
     inkscape:snap-bbox="true"
     inkscape:snap-bbox-midpoints="true" /><metadata
     id="metadata3834"><rdf:RDF><cc:Work
         rdf:about=""><dc:format>image/svg+xml</dc:format><dc:type
           rdf:resource="http://purl.org/dc/dcmitype/StillImage" /><dc:title /></cc:Work></rdf:RDF></metadata><defs
     id="defs3832" /><g
     id="DO_NOT_EDIT_-_BOUNDING_BOX"><rect
       width="80"
       height="80"
       x="0"
       y="0"
       id="BOUNDING_BOX"
       style="fill:none" /></g><g
     id="WHITE_x2F_GREY_BACKGROUNDS"
     style="display:none"><path
       d="M 79,40 C 79,68.893 68.895,79 40,79 11.105,79 1,68.893 1,40 1,11.106 11.105,1 40,1 68.895,1 79,11.106 79,40 z"
       id="GREY4_2_"
       style="fill:#515151;display:inline" /><path
       d="M 79,40 C 79,68.893 68.895,79 40,79 11.105,79 1,68.893 1,40 1,11.106 11.105,1 40,1 68.895,1 79,11.106 79,40 z"
       id="GREY3_2_"
       style="fill:#7c7c7c" /><path
       d="M 79,40 C 79,68.893 68.895,79 40,79 11.105,79 1,68.893 1,40 1,11.106 11.105,1 40,1 68.895,1 79,11.106 79,40 z"
       id="GREY2_2_"
       style="fill:#9e9e9e" /><path
       d="M 79,40 C 79,68.893 68.895,79 40,79 11.105,79 1,68.893 1,40 1,11.106 11.105,1 40,1 68.895,1 79,11.106 79,40 z"
       id="GREY1_2_"
       style="fill:#a3a8ab" /><linearGradient
       x1="39.9995"
       y1="-5.0801001"
       x2="39.9995"
       y2="75.070099"
       id="WHITE_1_"
       gradientUnits="userSpaceOnUse"><stop
         id="stop3716"
         style="stop-color:#ffffff;stop-opacity:1"
         offset="0" /><stop
         id="stop3718"
         style="stop-color:#fcfcfc;stop-opacity:1"
         offset="0.2886" /><stop
         id="stop3720"
         style="stop-color:#f2f2f2;stop-opacity:1"
         offset="0.52029997" /><stop
         id="stop3722"
         style="stop-color:#e1e1e1;stop-opacity:1"
         offset="0.73220003" /><stop
         id="stop3724"
         style="stop-color:#c9c9c9;stop-opacity:1"
         offset="0.93129998" /><stop
         id="stop3726"
         style="stop-color:#bfbfbf;stop-opacity:1"
         offset="1" /></linearGradient><path
       d="M 79,40 C 79,68.893 68.895,79 40,79 11.105,79 1,68.893 1,40 1,11.106 11.105,1 40,1 68.895,1 79,11.106 79,40 z"
       id="WHITE_2_"
       style="fill:url(#WHITE_1_)" /></g><g
     id="ORANGE_x2F_YELLOW_BACKGROUNDS"
     style="display:none"><path
       d="M 79,40 C 79,68.893 68.895,79 40,79 11.105,79 1,68.893 1,40 1,11.106 11.105,1 40,1 68.895,1 79,11.106 79,40 z"
       id="ORANGE3_1_"
       style="fill:#e8631f;display:inline" /><path
       d="M 79,40 C 79,68.893 68.895,79 40,79 11.105,79 1,68.893 1,40 1,11.106 11.105,1 40,1 68.895,1 79,11.106 79,40 z"
       id="ORANGE2_1_"
       style="fill:#f78500" /><path
       d="M 79,40 C 79,68.893 68.895,79 40,79 11.105,79 1,68.893 1,40 1,11.106 11.105,1 40,1 68.895,1 79,11.106 79,40 z"
       id="ORANGE1_1_"
       style="fill:#e69600" /><path
       d="M 79,40 C 79,68.893 68.895,79 40,79 11.105,79 1,68.893 1,40 1,11.106 11.105,1 40,1 68.895,1 79,11.106 79,40 z"
       id="YELLOW1_1_"
       style="fill:#f7ed76" /></g><g
     id="VIOLET_x2F_PINK_BACKGROUNDS"
     style="display:none"><path
       d="M 79,40 C 79,68.893 68.895,79 40,79 11.105,79 1,68.893 1,40 1,11.106 11.105,1 40,1 68.895,1 79,11.106 79,40 z"
       id="PINK2_2_"
       style="fill:#de11a6;display:inline" /><path
       d="M 79,40 C 79,68.893 68.895,79 40,79 11.105,79 1,68.893 1,40 1,11.106 11.105,1 40,1 68.895,1 79,11.106 79,40 z"
       id="PINK1_2_"
       style="fill:#c20fc1" /><path
       d="M 79,40 C 79,68.893 68.895,79 40,79 11.105,79 1,68.893 1,40 1,11.106 11.105,1 40,1 68.895,1 79,11.106 79,40 z"
       id="VIOLET2_2_"
       style="fill:#9501c5" /><path
       d="M 79,40 C 79,68.893 68.895,79 40,79 11.105,79 1,68.893 1,40 1,11.106 11.105,1 40,1 68.895,1 79,11.106 79,40 z"
       id="VIOLET1_2_"
       style="fill:#6401ba" /></g><g
     id="BLUE_BACKGROUNDS"
     style="display:none"><path
       d="M 79,40 C 79,68.893 68.895,79 40,79 11.105,79 1,68.893 1,40 1,11.106 11.105,1 40,1 68.895,1 79,11.106 79,40 z"
       id="BLUE4_2_"
       style="fill:#124191;display:inline" /><path
       d="M 79,40 C 79,68.893 68.895,79 40,79 11.105,79 1,68.893 1,40 1,11.106 11.105,1 40,1 68.895,1 79,11.106 79,40 z"
       id="BLUE3_1_"
       style="fill:#2d65c2" /><path
       d="M 79,40 C 79,68.893 68.895,79 40,79 11.105,79 1,68.893 1,40 1,11.106 11.105,1 40,1 68.895,1 79,11.106 79,40 z"
       id="BLUE2_2_"
       style="fill:#0088af" /><path
       d="M 79,40 C 79,68.893 68.895,79 40,79 11.105,79 1,68.893 1,40 1,11.106 11.105,1 40,1 68.895,1 79,11.106 79,40 z"
       id="BLUE1_2_"
       style="fill:#047dc9" /></g><g
     id="GREEN_BACKGROUNDS"
     style="fill:#ffd700;fill-opacity:1;stroke:none"><path
       d="M 79,40 C 79,68.893 68.895,79 40,79 11.105,79 1,68.893 1,40 1,11.106 11.105,1 40,1 68.895,1 79,11.106 79,40 z"
       id="GREEN3_1_"
       style="fill:#ffd700;fill-opacity:1;stroke:none" /><path
       d="M 79,40 C 79,68.893 68.895,79 40,79 11.105,79 1,68.893 1,40 1,11.106 11.105,1 40,1 68.895,1 79,11.106 79,40 z"
       id="GREEN2_1_"
       style="fill:#ffd700;fill-opacity:1;stroke:none;display:none" /><path
       d="M 79,40 C 79,68.893 68.895,79 40,79 11.105,79 1,68.893 1,40 1,11.106 11.105,1 40,1 68.895,1 79,11.106 79,40 z"
       id="GREEN1_2_"
       style="fill:#ffd700;fill-opacity:1;stroke:none" /></g><g
     id="DO_NOT_EDIT_-_HIGHLIGHT"
     style="opacity:0.35"><defs
       id="defs3749"><filter
         filterUnits="userSpaceOnUse"
         x="1.023"
         y="1"
         width="77.953003"
         height="78"
         color-interpolation-filters="sRGB"
         id="Adobe_OpacityMaskFilter"><feFlood
           id="feFlood3752"
           result="back" /><feBlend
           in2="back"
           mode="normal"
           in="SourceGraphic"
           id="feBlend3754" /></filter></defs><mask
       id="OVERLAY_2_"><g
         id="g3757"
         style="filter:url(#Adobe_OpacityMaskFilter)"><defs
           id="defs3759"><filter
             filterUnits="userSpaceOnUse"
             x="1.023"
             y="1"
             width="77.953003"
             height="78"
             color-interpolation-filters="sRGB"
             id="Adobe_OpacityMaskFilter_1_"><feFlood
               id="feFlood3762"
               result="back" /><feBlend
               in2="back"
               mode="normal"
               in="SourceGraphic"
               id="feBlend3764" /></filter></defs><mask
           id="mask3766"><g
             id="g3768"
             style="filter:url(#Adobe_OpacityMaskFilter_1_)" /></mask><linearGradient
           x1="39.9995"
           y1="5.1816001"
           x2="39.9995"
           y2="58.801899"
           id="OVERLAY_3_"
           gradientUnits="userSpaceOnUse"><stop
             id="stop3771"
             style="stop-color:#ffffff;stop-opacity:1"
             offset="0" /><stop
             id="stop3773"
             style="stop-color:#d6d6d6;stop-opacity:1"
             offset="1" /></linearGradient><path
           d="M 78.977,40 C 78.977,68.893 68.877,79 40,79 11.123,79 1.023,68.893 1.023,40 1.023,11.106 11.123,1 40,1 68.877,1 78.977,11.106 78.977,40 z"
           id="OVERLAY_1_"
           style="fill:url(#OVERLAY_3_)" /></g></mask><linearGradient
       x1="39.9995"
       y1="5.1816001"
       x2="39.9995"
       y2="58.801899"
       id="OVERLAY_4_"
       gradientUnits="userSpaceOnUse"><stop
         id="stop3777"
         style="stop-color:#ffffff;stop-opacity:1"
         offset="0" /><stop
         id="stop3779"
         style="stop-color:#000000;stop-opacity:1"
         offset="1" /></linearGradient><path
       d="M 78.977,40 C 78.977,68.893 68.877,79 40,79 11.123,79 1.023,68.893 1.023,40 1.023,11.106 11.123,1 40,1 68.877,1 78.977,11.106 78.977,40 z"
       id="OVERLAY"
       style="opacity:0.50000000000000000;fill:url(#OVERLAY_4_)" /><defs
       id="defs3782"><filter
         filterUnits="userSpaceOnUse"
         x="1"
         y="1"
         width="78"
         height="78"
         color-interpolation-filters="sRGB"
         id="Adobe_OpacityMaskFilter_2_"><feFlood
           id="feFlood3785"
           result="back" /><feBlend
           in2="back"
           mode="normal"
           in="SourceGraphic"
           id="feBlend3787" /></filter></defs><mask
       id="HIGHLIGHT_2_"><g
         id="g3790"
         style="filter:url(#Adobe_OpacityMaskFilter_2_)"><defs
           id="defs3792"><filter
             filterUnits="userSpaceOnUse"
             x="1"
             y="1"
             width="78"
             height="78"
             color-interpolation-filters="sRGB"
             id="Adobe_OpacityMaskFilter_3_"><feFlood
               id="feFlood3795"
               result="back" /><feBlend
               in2="back"
               mode="normal"
               in="SourceGraphic"
               id="feBlend3797" /></filter></defs><mask
           id="mask3799"><g
             id="g3801"
             style="filter:url(#Adobe_OpacityMaskFilter_3_)" /></mask><linearGradient
           x1="39.9995"
           y1="1.2471"
           x2="39.9995"
           y2="78.511101"
           id="HIGHLIGHT_3_"
           gradientUnits="userSpaceOnUse"><stop
             id="stop3804"
             style="stop-color:#ffffff;stop-opacity:1"
             offset="0" /><stop
             id="stop3806"
             style="stop-color:#000000;stop-opacity:1"
             offset="1" /></linearGradient><path
           d="M 39.999,1 C 11.105,1 1,11.106 1,40 1,68.893 11.105,79 39.999,79 68.896,79 79,68.893 79,40 79,11.106 68.896,1 39.999,1 z m 0,77.025 C 11.57,78.025 1.976,68.43 1.976,40 c 0,-28.429 9.595,-38.024 38.023,-38.024 28.43,0 38.024,9.596 38.024,38.024 0,28.43 -9.594,38.025 -38.024,38.025 z"
           id="HIGHLIGHT_1_"
           style="fill:url(#HIGHLIGHT_3_)" /></g></mask><linearGradient
       x1="39.9995"
       y1="1.2471"
       x2="39.9995"
       y2="78.511101"
       id="HIGHLIGHT_4_"
       gradientUnits="userSpaceOnUse"><stop
         id="stop3810"
         style="stop-color:#ffffff;stop-opacity:1"
         offset="0" /><stop
         id="stop3812"
         style="stop-color:#ffffff;stop-opacity:1"
         offset="1" /></linearGradient><path
       d="M 39.999,1 C 11.105,1 1,11.106 1,40 1,68.893 11.105,79 39.999,79 68.896,79 79,68.893 79,40 79,11.106 68.896,1 39.999,1 z m 0,77.025 C 11.57,78.025 1.976,68.43 1.976,40 c 0,-28.429 9.595,-38.024 38.023,-38.024 28.43,0 38.024,9.596 38.024,38.024 0,28.43 -9.594,38.025 -38.024,38.025 z"
       id="HIGHLIGHT"
       style="opacity:0.25000000000000000;fill:url(#HIGHLIGHT_4_)" /></g><g
     id="DO_NOT_EDIT_-_FOCAL_ZONE_GUIDES" /><text
     x="5.0815411"
     y="51.0742"
     id="text4631"
     xml:space="preserve"
     style="font-size:29.64816093px;font-style:normal;font-variant:normal;font-weight:bold;font-stretch:normal;text-align:start;line-height:125%;letter-spacing:0px;word-spacing:0px;writing-mode:lr-tb;text-anchor:start;fill:#ffffff;fill-opacity:1;stroke:none;font-family:Nokia Pure Text;-inkscape-font-specification:Nokia Pure Text Bold"
     sodipodi:linespacing="125%"
     transform="scale(1.0070466,0.99300267)"><tspan
       x="5.0815411"
       y="51.0742"
       id="tspan4633"
       style="font-size:29.64816093px;font-style:normal;font-variant:normal;font-weight:bold;font-stretch:normal;text-align:start;line-height:125%;writing-mode:lr-tb;text-anchor:start;font-family:Nokia Pure Text;-inkscape-font-specification:Nokia Pure Text Bold">2048</tspan></text>
</svg>